<svg width="30" height="30" viewBox="0 0 30 30" fill="none" xmlns="http://www.w3.org/2000/svg">
<g id="ph:magnifying-glass-bold">
<path id="Vector" d="M27.2449 25.2551L21.6797 19.6875C23.3483 17.5131 24.1274 14.7853 23.8588 12.0576C23.5902 9.32989 22.2941 6.80647 20.2334 4.99923C18.1727 3.19199 15.5017 2.23626 12.7623 2.32591C10.0229 2.41557 7.42009 3.5439 5.48198 5.48201C3.54386 7.42012 2.41554 10.0229 2.32588 12.7623C2.23623 15.5018 3.19196 18.1727 4.9992 20.2334C6.80644 22.2941 9.32986 23.5902 12.0576 23.8588C14.7853 24.1274 17.513 23.3483 19.6875 21.6797L25.2574 27.2508C25.3882 27.3816 25.5435 27.4854 25.7144 27.5562C25.8853 27.627 26.0685 27.6634 26.2535 27.6634C26.4385 27.6634 26.6217 27.627 26.7926 27.5562C26.9635 27.4854 27.1188 27.3816 27.2496 27.2508C27.3804 27.12 27.4842 26.9647 27.555 26.7938C27.6258 26.6229 27.6622 26.4397 27.6622 26.2547C27.6622 26.0697 27.6258 25.8865 27.555 25.7156C27.4842 25.5447 27.3804 25.3894 27.2496 25.2586L27.2449 25.2551ZM5.15624 13.125C5.15624 11.549 5.6236 10.0083 6.49922 8.69782C7.37484 7.38737 8.61939 6.36599 10.0755 5.76286C11.5316 5.15972 13.1338 5.00191 14.6796 5.30939C16.2254 5.61687 17.6453 6.37582 18.7598 7.49027C19.8742 8.60471 20.6332 10.0246 20.9406 11.5704C21.2481 13.1162 21.0903 14.7184 20.4872 16.1745C19.884 17.6306 18.8626 18.8752 17.5522 19.7508C16.2417 20.6264 14.7011 21.0938 13.125 21.0938C11.0122 21.0916 8.98659 20.2513 7.49263 18.7574C5.99867 17.2634 5.15841 15.2378 5.15624 13.125Z" fill="#008000"/>
</g>
</svg>
